<svg width="11" height="11" viewBox="0 0 11 11" fill="none" xmlns="http://www.w3.org/2000/svg">
<path id="Vector" d="M5.5 1.04714C5.06745 1.04714 4.65262 1.21271 4.34677 1.50742C4.04091 1.80213 3.86908 2.20185 3.86908 2.61864C3.86908 3.03543 4.04091 3.43515 4.34677 3.72986C4.65262 4.02458 5.06745 4.19015 5.5 4.19015C5.93255 4.19015 6.34738 4.02458 6.65323 3.72986C6.95909 3.43515 7.13092 3.03543 7.13092 2.61864C7.13092 2.20185 6.95909 1.80213 6.65323 1.50742C6.34738 1.21271 5.93255 1.04714 5.5 1.04714ZM2.7818 2.61864C2.78191 2.12308 2.92792 1.63771 3.20287 1.21891C3.47783 0.800117 3.87044 0.465075 4.33512 0.252702C4.7998 0.0403295 5.31747 -0.0406595 5.82801 0.0191417C6.33855 0.0789428 6.82101 0.27708 7.21935 0.590541C7.61769 0.904002 7.91557 1.31992 8.07839 1.79C8.2412 2.26007 8.26228 2.76501 8.13916 3.24617C8.01605 3.72732 7.7538 4.16495 7.38286 4.50822C7.01193 4.85149 6.54755 5.08632 6.04364 5.18543V8.38083H4.95636V5.18543C4.34249 5.06449 3.79079 4.74299 3.39456 4.27529C2.99833 3.80759 2.78188 3.22239 2.7818 2.61864ZM0.664327 5.23782H3.32544V6.28549H1.63744L1.21449 9.95233H9.78551L9.36256 6.28549H7.67456V5.23782H10.3357L11 11H0L0.664327 5.23782Z" fill="#818181"/>
</svg>
