<svg width="12" height="12" viewBox="0 0 12 12" fill="none" xmlns="http://www.w3.org/2000/svg">
<path id="Vector" d="M7.42347 2.70401C6.78998 1.568 6.47349 1 6 1C5.52651 1 5.21002 1.568 4.57653 2.70401L4.41254 2.99801C4.23254 3.32101 4.14254 3.48251 4.00255 3.58901C3.86255 3.69551 3.68755 3.73501 3.33756 3.81401L3.01957 3.88601C1.7896 4.16451 1.17511 4.30351 1.02862 4.77401C0.882621 5.24401 1.30161 5.73451 2.14009 6.71502L2.35709 6.96852C2.59508 7.24702 2.71458 7.38652 2.76808 7.55852C2.82157 7.73102 2.80358 7.91702 2.76758 8.28852L2.73458 8.62702C2.60808 9.93553 2.54458 10.5895 2.92757 10.88C3.31056 11.171 3.88655 10.9055 5.03752 10.3755L5.33602 10.2385C5.66301 10.0875 5.8265 10.0125 6 10.0125C6.1735 10.0125 6.33699 10.0875 6.66398 10.2385L6.96198 10.3755C8.11345 10.9055 8.68944 11.1705 9.07193 10.8805C9.45542 10.5895 9.39192 9.93553 9.26542 8.62702L9.23242 8.28902C9.19643 7.91702 9.17843 7.73102 9.23242 7.55902C9.28542 7.38652 9.40492 7.24702 9.64291 6.96902L9.85991 6.71502C10.6984 5.73501 11.1174 5.24451 10.9714 4.77401C10.8249 4.30351 10.2099 4.16401 8.97993 3.88601L8.66194 3.81401C8.31245 3.73501 8.13795 3.69551 7.99745 3.58901C7.85746 3.48251 7.76746 3.32101 7.58746 2.99801L7.42347 2.70401Z" stroke="#111111"/>
</svg>
