<svg width="10" height="10" viewBox="0 0 10 10" fill="none" xmlns="http://www.w3.org/2000/svg">
<path id="Vector" d="M4.83929 1.62509L5.73212 0.732252C5.96428 0.500099 6.23988 0.315946 6.5432 0.190306C6.84652 0.0646661 7.17162 3.45934e-09 7.49994 0C7.82825 -3.45934e-09 8.15335 0.064666 8.45667 0.190306C8.75999 0.315946 9.0356 0.500099 9.26775 0.732252C9.4999 0.964404 9.68405 1.24001 9.80969 1.54333C9.93533 1.84665 10 2.17175 10 2.50006C10 2.82838 9.93533 3.15348 9.80969 3.4568C9.68405 3.76012 9.4999 4.03572 9.26775 4.26788L7.48208 6.05354C7.24994 6.28571 6.97433 6.46988 6.67101 6.59553C6.36769 6.72118 6.04258 6.78585 5.71427 6.78585C5.38595 6.78585 5.06085 6.72118 4.75752 6.59553C4.4542 6.46988 4.1786 6.28571 3.94646 6.05354C3.85188 5.95193 3.80038 5.81761 3.80278 5.67882C3.80517 5.54002 3.86128 5.40756 3.95931 5.30928C4.0576 5.21125 4.19006 5.15514 4.32885 5.15274C4.46765 5.15034 4.60197 5.20185 4.70358 5.29642C4.83616 5.42941 4.99368 5.53493 5.16711 5.60693C5.34054 5.67892 5.52648 5.71599 5.71427 5.71599C5.90205 5.71599 6.08799 5.67892 6.26142 5.60693C6.43486 5.53493 6.59238 5.42941 6.72496 5.29642L8.51062 3.51075C8.76563 3.24008 8.90517 2.88072 8.89963 2.50888C8.89409 2.13704 8.74392 1.78199 8.48096 1.51904C8.21801 1.25608 7.86296 1.10591 7.49112 1.10037C7.11928 1.09483 6.75992 1.23437 6.48925 1.48938L5.59641 2.38221C5.4948 2.47678 5.36048 2.52829 5.22169 2.52589C5.08289 2.52349 4.95043 2.46738 4.85215 2.36935C4.75412 2.27107 4.69801 2.13861 4.69561 1.99981C4.69321 1.86102 4.74471 1.7267 4.83929 1.62509ZM1.48938 8.51062C1.62195 8.64361 1.77947 8.74913 1.95291 8.82113C2.12634 8.89313 2.31228 8.93019 2.50006 8.93019C2.68785 8.93019 2.87379 8.89313 3.04722 8.82113C3.22066 8.74913 3.37818 8.64361 3.51075 8.51062L4.40359 7.61779C4.5052 7.52321 4.63952 7.47171 4.77831 7.47411C4.91711 7.47651 5.04957 7.53262 5.14785 7.63065C5.24588 7.72893 5.30199 7.86139 5.30439 8.00019C5.30679 8.13898 5.25529 8.2733 5.16071 8.37491L4.26788 9.26775C4.03572 9.4999 3.76012 9.68405 3.4568 9.80969C3.15347 9.93533 2.82838 10 2.50006 10C2.17175 10 1.84665 9.93533 1.54333 9.80969C1.24001 9.68405 0.964404 9.4999 0.732252 9.26775C0.500099 9.0356 0.315946 8.75999 0.190306 8.45667C0.064666 8.15335 -2.44612e-09 7.82825 0 7.49994C2.44612e-09 7.17162 0.0646661 6.84652 0.190306 6.5432C0.315946 6.23988 0.500099 5.96428 0.732252 5.73212L2.51792 3.94646C2.75006 3.71429 3.02567 3.53012 3.32899 3.40447C3.63231 3.27882 3.95741 3.21415 4.28573 3.21415C4.61405 3.21415 4.93915 3.27882 5.24248 3.40447C5.5458 3.53012 5.8214 3.71429 6.05354 3.94646C6.14812 4.04807 6.19962 4.18239 6.19722 4.32118C6.19483 4.45998 6.13872 4.59244 6.04069 4.69072C5.9424 4.78875 5.80994 4.84486 5.67115 4.84726C5.53235 4.84966 5.39803 4.79815 5.29642 4.70358C5.16384 4.57059 5.00632 4.46507 4.83289 4.39307C4.65946 4.32108 4.47352 4.28402 4.28573 4.28402C4.09795 4.28402 3.91201 4.32108 3.73857 4.39307C3.56514 4.46507 3.40762 4.57059 3.27504 4.70358L1.48938 6.48925C1.35638 6.62182 1.25087 6.77934 1.17887 6.95278C1.10687 7.12621 1.06981 7.31215 1.06981 7.49994C1.06981 7.68772 1.10687 7.87366 1.17887 8.04709C1.25087 8.22053 1.35638 8.37805 1.48938 8.51062Z" fill="#818181"/>
</svg>
