<svg width="33" height="34" viewBox="0 0 33 34" fill="none" xmlns="http://www.w3.org/2000/svg">
<path id="Vector" fill-rule="evenodd" clip-rule="evenodd" d="M14.8842 0.0655518C12.6256 0.0657568 10.3998 0.641341 8.39252 1.74428C6.38521 2.84722 4.6546 4.44554 3.34508 6.40588C2.03556 8.36622 1.1851 10.6317 0.864657 13.0134C0.544213 15.3951 0.763077 17.8239 1.50299 20.0972C2.2429 22.3704 3.48241 24.4222 5.11809 26.0814C6.75377 27.7405 8.7382 28.959 10.9058 29.635C13.0734 30.311 15.3614 30.425 17.5788 29.9675C19.7962 29.51 21.8787 28.4942 23.6526 27.0049L29.7382 33.4877C30.0524 33.8111 30.4734 33.99 30.9103 33.9859C31.3472 33.9819 31.7651 33.7952 32.0741 33.4661C32.3831 33.137 32.5583 32.6917 32.5621 32.2263C32.5659 31.7609 32.3979 31.3125 32.0944 30.9777L26.0089 24.4949C27.6552 22.27 28.6803 19.5962 28.9668 16.7797C29.2533 13.9631 28.7897 11.1175 27.6289 8.56859C26.4682 6.01963 24.6572 3.87029 22.4034 2.36653C20.1495 0.862774 17.5437 0.0653616 14.8842 0.0655518ZM4.05289 15.1542C4.05289 12.094 5.19405 9.15917 7.22532 6.99532C9.25659 4.83146 12.0116 3.61581 14.8842 3.61581C17.7569 3.61581 20.5119 4.83146 22.5431 6.99532C24.5744 9.15917 25.7156 12.094 25.7156 15.1542C25.7156 18.2143 24.5744 21.1491 22.5431 23.313C20.5119 25.4769 17.7569 26.6925 14.8842 26.6925C12.0116 26.6925 9.25659 25.4769 7.22532 23.313C5.19405 21.1491 4.05289 18.2143 4.05289 15.1542Z" fill="black"/>
</svg>
