<svg width="10" height="10" viewBox="0 0 10 10" fill="none" xmlns="http://www.w3.org/2000/svg">
<path id="Vector" d="M9.73073 3.98799L5.56406 0.213668C5.56202 0.211962 5.56011 0.210124 5.55833 0.208167C5.40493 0.0742226 5.20502 0 4.99766 0C4.7903 0 4.59039 0.0742226 4.43698 0.208167L4.43125 0.213668L0.269271 3.98799C0.184374 4.06294 0.116606 4.15399 0.070256 4.25539C0.0239058 4.35678 -1.75223e-05 4.46631 9.62907e-09 4.57704V9.19993C9.62907e-09 9.41212 0.0877973 9.61562 0.244078 9.76567C0.400358 9.91571 0.61232 10 0.833333 10H3.33333C3.55435 10 3.76631 9.91571 3.92259 9.76567C4.07887 9.61562 4.16667 9.41212 4.16667 9.19993V6.79973H5.83333V9.19993C5.83333 9.41212 5.92113 9.61562 6.07741 9.76567C6.23369 9.91571 6.44565 10 6.66667 10H9.16667C9.38768 10 9.59964 9.91571 9.75592 9.76567C9.9122 9.61562 10 9.41212 10 9.19993V4.57704C10 4.46631 9.97609 4.35678 9.92974 4.25539C9.88339 4.15399 9.81563 4.06294 9.73073 3.98799ZM9.16667 9.19993H6.66667V6.79973C6.66667 6.58754 6.57887 6.38404 6.42259 6.23399C6.26631 6.08395 6.05435 5.99966 5.83333 5.99966H4.16667C3.94565 5.99966 3.73369 6.08395 3.57741 6.23399C3.42113 6.38404 3.33333 6.58754 3.33333 6.79973V9.19993H0.833333V4.57704L0.839063 4.57204L5 0.799218L9.16146 4.57104L9.16719 4.57604L9.16667 9.19993Z" fill="#818181"/>
</svg>
